<svg height="70" width="215" xmlns="http://www.w3.org/2000/svg">
  <path d="m4.875 53.55h205.5v6h-205.5z" fill="#808080"/>
  <path d="m17 32v-3.48l-9.88-16.24h-.12v19.72h-3.76v-26.2h3.76l9.84 16.4h.16v-16.4h3.76v26.2zm8.72-16.88c1.36-1.63 3.45-2.44 6.28-2.44s4.92.81 6.28 2.42 2.04 4.1 2.04 7.46-.68 5.86-2.04 7.5-3.45 2.46-6.28 2.46-4.92-.82-6.28-2.46-2.04-4.14-2.04-7.5.68-5.84 2.04-7.44zm3.2 2.84c-.53.93-.8 2.47-.8 4.6s.28 3.68.84 4.64 1.57 1.44 3.04 1.44 2.48-.48 3.04-1.44.84-2.51.84-4.64-.27-3.67-.82-4.6-1.57-1.4-3.06-1.4-2.52.47-3.08 1.4zm16.8-2.84c1.36-1.63 3.45-2.44 6.28-2.44s4.92.81 6.28 2.42 2.04 4.1 2.04 7.46-.68 5.86-2.04 7.5-3.45 2.46-6.28 2.46-4.92-.82-6.28-2.46-2.04-4.14-2.04-7.5.68-5.84 2.04-7.44zm3.2 2.84c-.53.93-.8 2.47-.8 4.6s.28 3.68.84 4.64 1.57 1.44 3.04 1.44 2.48-.48 3.04-1.44.84-2.51.84-4.64-.27-3.67-.82-4.6-1.57-1.4-3.06-1.4-2.52.47-3.08 1.4zm15.36 21.72v-23.24l-.24-3.44 4-.28.24 1.76c1.79-1.2 3.37-1.8 4.76-1.8 2.69 0 4.67.79 5.94 2.38s1.9 4.06 1.9 7.42-.77 5.86-2.32 7.5-3.75 2.46-6.6 2.46c-.96 0-2.15-.28-3.56-.84v8.08zm8.6-23.16c-1.23 0-2.72.59-4.48 1.76v9.52c1.28.56 2.44.84 3.48.84 3.04 0 4.56-2.03 4.56-6.08s-1.19-6.07-3.56-6.04zm11.28 15.48v-26.2h4.16v11.4l2.12-.28c1.68-2.61 3.43-5.72 5.24-9.32l.92-1.8h4.48c-2.67 5.31-5.05 9.53-7.16 12.68.77 1.23 1.79 2.96 3.04 5.2 0 0 1.49 2.77 4.48 8.32h-4.56c-2.64-5.23-4.68-8.99-6.12-11.28l-2.44.28v11zm20.28 0v-3.68h5.96v-11.64h-5.64v-3.68h9.76v15.32h5.64v3.68zm7.8-21.76c-.8 0-1.43-.25-1.9-.74s-.7-1.14-.7-1.94.24-1.44.72-1.92 1.13-.72 1.94-.72 1.44.23 1.88.7.66 1.11.66 1.94-.23 1.48-.68 1.96-1.09.72-1.92.72zm12.12 6.44v-3.68h3.24v-4.56l4.12-.4v4.96h7.48v3.68h-7.48v8c0 1.47.15 2.5.44 3.1s.89.9 1.8.9c1.57 0 3.41-.25 5.52-.76l.68 3.56c-2.32.61-4.39.92-6.2.92-2.56 0-4.26-.57-5.1-1.72s-1.26-3.15-1.26-6v-8zm0 0" fill="#f9b900" transform="scale(1.5)"/>
</svg>
